<svg width="636" height="452" viewBox="0 0 636 452" fill="none" xmlns="http://www.w3.org/2000/svg">
<rect width="242" height="381" rx="8" fill="black"/>
<path d="M57 294C57 291.791 58.7909 290 61 290H70.3333V330H61C58.7909 330 57 328.209 57 326V294Z" fill="#FFECD6"/>
<path d="M83.6667 290H93.0001C95.2092 290 97.0001 291.791 97.0001 294V326C97.0001 328.209 95.2092 330 93.0001 330H83.6667V290Z" fill="#FFECD6"/>
<mask id="path-4-inside-1_1318_1478" fill="white">
<path d="M70.3333 290H83.6666V303.333H70.3333V290Z"/>
</mask>
<path d="M70.3333 290H83.6666V303.333H70.3333V290Z" fill="#FFECD6"/>
<path d="M70.3333 290V289.9H70.2333V290H70.3333ZM83.6666 290H83.7666V289.9H83.6666V290ZM70.3333 290.1H83.6666V289.9H70.3333V290.1ZM83.5666 290V303.333H83.7666V290H83.5666ZM70.4333 303.333V290H70.2333V303.333H70.4333Z" fill="black" mask="url(#path-4-inside-1_1318_1478)"/>
<rect x="70.3833" y="303.383" width="13.2333" height="13.2333" fill="#FFECD6" stroke="black" stroke-width="0.1"/>
<mask id="path-7-inside-2_1318_1478" fill="white">
<path d="M70.3333 316.667H83.6666V330H70.3333V316.667Z"/>
</mask>
<path d="M70.3333 316.667H83.6666V330H70.3333V316.667Z" fill="#FFECD6"/>
<path d="M83.6666 330V330.1H83.7666V330H83.6666ZM70.3333 330H70.2333V330.1H70.3333V330ZM83.5666 316.667V330H83.7666V316.667H83.5666ZM83.6666 329.9H70.3333V330.1H83.6666V329.9ZM70.4333 330V316.667H70.2333V330H70.4333Z" fill="black" mask="url(#path-7-inside-2_1318_1478)"/>
<path d="M96.95 303.084L84.1055 310L96.95 316.916V303.084Z" fill="#FFECD6" stroke="black" stroke-width="0.1"/>
<path d="M57.05 303.084L69.8945 310L57.05 316.916V303.084Z" fill="#FFECD6" stroke="black" stroke-width="0.1"/>
<g filter="url(#filter0_dd_1318_1478)">
<rect x="145" y="138" width="479" height="302" rx="8" fill="white"/>
<g filter="url(#filter1_d_1318_1478)">
<path d="M373.148 315.461C373.148 301.281 376.781 296.945 383.461 292.727C388.617 289.445 392.602 286.164 392.602 281.008C392.602 275.852 388.5 272.57 383.461 272.57C378.539 272.57 373.969 276.086 373.852 281.945H355.219C355.453 264.719 368.227 256.984 383.578 256.984C400.57 256.984 412.875 265.188 412.875 280.07C412.875 289.914 407.602 296.008 399.75 300.695C393.422 304.445 390.375 307.961 390.375 315.461V317.102H373.148V315.461ZM382.055 344.172C376.195 344.172 371.391 339.484 371.508 333.508C371.391 327.766 376.195 323.078 382.055 323.078C387.68 323.078 392.602 327.766 392.719 333.508C392.602 339.484 387.68 344.172 382.055 344.172Z" fill="#0A62D0"/>
</g>
<path d="M203.424 184.384H208.64V187.904H203.424V184.384ZM200.224 173.152H204.512V202.784H200.224V173.152ZM182.208 176H186.432V194.432H182.208V176ZM182.208 192.032H184.736C186.848 192.032 189.045 191.947 191.328 191.776C193.611 191.605 195.947 191.285 198.336 190.816L198.784 194.272C196.309 194.784 193.899 195.136 191.552 195.328C189.205 195.499 186.933 195.584 184.736 195.584H182.208V192.032ZM211.582 175.616H225.726V189.952H211.582V175.616ZM221.534 179.008H215.774V186.592H221.534V179.008ZM229.79 173.216H234.046V194.816H229.79V173.216ZM232.862 181.76H237.982V185.248H232.862V181.76ZM214.942 198.912H235.102V202.336H214.942V198.912ZM214.942 192.704H219.23V200.64H214.942V192.704ZM249.723 175.168C251.259 175.168 252.646 175.477 253.883 176.096C255.12 176.715 256.091 177.579 256.795 178.688C257.499 179.776 257.851 181.035 257.851 182.464C257.851 183.872 257.499 185.131 256.795 186.24C256.091 187.349 255.12 188.213 253.883 188.832C252.646 189.451 251.259 189.76 249.723 189.76C248.166 189.76 246.768 189.451 245.531 188.832C244.294 188.213 243.312 187.349 242.587 186.24C241.883 185.131 241.531 183.872 241.531 182.464C241.531 181.035 241.883 179.776 242.587 178.688C243.312 177.579 244.294 176.715 245.531 176.096C246.768 175.477 248.166 175.168 249.723 175.168ZM249.723 178.816C248.955 178.816 248.262 178.965 247.643 179.264C247.046 179.541 246.566 179.957 246.203 180.512C245.862 181.045 245.691 181.696 245.691 182.464C245.691 183.232 245.862 183.893 246.203 184.448C246.566 185.003 247.046 185.429 247.643 185.728C248.262 186.005 248.955 186.144 249.723 186.144C250.47 186.144 251.142 186.005 251.739 185.728C252.336 185.429 252.806 185.003 253.147 184.448C253.51 183.893 253.691 183.232 253.691 182.464C253.691 181.696 253.51 181.045 253.147 180.512C252.806 179.957 252.336 179.541 251.739 179.264C251.142 178.965 250.47 178.816 249.723 178.816ZM260.635 173.152H264.891V202.88H260.635V173.152ZM240.795 196.896L240.315 193.44C242.043 193.44 243.952 193.429 246.043 193.408C248.155 193.365 250.32 193.28 252.539 193.152C254.779 193.003 256.944 192.779 259.035 192.48L259.323 195.552C257.19 195.979 255.024 196.288 252.827 196.48C250.63 196.651 248.507 196.768 246.459 196.832C244.411 196.875 242.523 196.896 240.795 196.896ZM298.938 173.216H303.002V202.848H298.938V173.216ZM293.274 173.696H297.242V201.536H293.274V173.696ZM290.106 182.784H295.066V186.144H290.106V182.784ZM289.914 189.696H294.874V193.088H289.914V189.696ZM277.53 177.632H291.482V181.024H277.53V177.632ZM284.442 182.368C285.658 182.368 286.735 182.677 287.674 183.296C288.634 183.893 289.381 184.725 289.914 185.792C290.469 186.859 290.746 188.096 290.746 189.504C290.746 190.891 290.469 192.128 289.914 193.216C289.381 194.283 288.634 195.125 287.674 195.744C286.735 196.363 285.658 196.672 284.442 196.672C283.226 196.672 282.138 196.373 281.178 195.776C280.239 195.157 279.493 194.304 278.938 193.216C278.383 192.128 278.106 190.891 278.106 189.504C278.106 188.096 278.383 186.859 278.938 185.792C279.493 184.725 280.239 183.893 281.178 183.296C282.138 182.677 283.226 182.368 284.442 182.368ZM284.442 185.952C283.93 185.952 283.471 186.091 283.066 186.368C282.682 186.645 282.383 187.051 282.17 187.584C281.957 188.117 281.85 188.757 281.85 189.504C281.85 190.251 281.957 190.891 282.17 191.424C282.383 191.957 282.682 192.373 283.066 192.672C283.471 192.949 283.93 193.088 284.442 193.088C284.954 193.088 285.402 192.949 285.786 192.672C286.191 192.373 286.501 191.957 286.714 191.424C286.927 190.891 287.034 190.251 287.034 189.504C287.034 188.757 286.927 188.117 286.714 187.584C286.501 187.051 286.191 186.645 285.786 186.368C285.402 186.091 284.954 185.952 284.442 185.952ZM282.394 173.92H286.586V179.712H282.394V173.92ZM307.992 186.72H310.04C311.469 186.72 312.749 186.709 313.88 186.688C315.032 186.645 316.12 186.581 317.144 186.496C318.168 186.389 319.224 186.251 320.312 186.08L320.696 189.472C319.565 189.664 318.466 189.813 317.4 189.92C316.333 190.027 315.202 190.091 314.008 190.112C312.834 190.133 311.512 190.144 310.04 190.144H307.992V186.72ZM307.992 175.168H319.64V178.56H312.088V188.608H307.992V175.168ZM310.872 180.992H319.352V184.192H310.872V180.992ZM328.184 173.184H332.248V191.296H328.184V173.184ZM324.664 180.448H329.368V183.872H324.664V180.448ZM321.88 173.728H325.848V191.104H321.88V173.728ZM311.864 192.544H332.248V202.848H327.992V195.968H311.864V192.544Z" fill="#1D1D1F"/>
</g>
<defs>
<filter id="filter0_dd_1318_1478" x="137" y="130" width="499" height="322" filterUnits="userSpaceOnUse" color-interpolation-filters="sRGB">
<feFlood flood-opacity="0" result="BackgroundImageFix"/>
<feColorMatrix in="SourceAlpha" type="matrix" values="0 0 0 0 0 0 0 0 0 0 0 0 0 0 0 0 0 0 127 0" result="hardAlpha"/>
<feOffset dx="4"/>
<feGaussianBlur stdDeviation="4"/>
<feComposite in2="hardAlpha" operator="out"/>
<feColorMatrix type="matrix" values="0 0 0 0 0 0 0 0 0 0 0 0 0 0 0 0 0 0 0.25 0"/>
<feBlend mode="normal" in2="BackgroundImageFix" result="effect1_dropShadow_1318_1478"/>
<feColorMatrix in="SourceAlpha" type="matrix" values="0 0 0 0 0 0 0 0 0 0 0 0 0 0 0 0 0 0 127 0" result="hardAlpha"/>
<feOffset dy="4"/>
<feGaussianBlur stdDeviation="4"/>
<feComposite in2="hardAlpha" operator="out"/>
<feColorMatrix type="matrix" values="0 0 0 0 0 0 0 0 0 0 0 0 0 0 0 0 0 0 0.25 0"/>
<feBlend mode="normal" in2="effect1_dropShadow_1318_1478" result="effect2_dropShadow_1318_1478"/>
<feBlend mode="normal" in="SourceGraphic" in2="effect2_dropShadow_1318_1478" result="shape"/>
</filter>
<filter id="filter1_d_1318_1478" x="351.219" y="256.984" width="65.6562" height="95.1875" filterUnits="userSpaceOnUse" color-interpolation-filters="sRGB">
<feFlood flood-opacity="0" result="BackgroundImageFix"/>
<feColorMatrix in="SourceAlpha" type="matrix" values="0 0 0 0 0 0 0 0 0 0 0 0 0 0 0 0 0 0 127 0" result="hardAlpha"/>
<feOffset dy="4"/>
<feGaussianBlur stdDeviation="2"/>
<feComposite in2="hardAlpha" operator="out"/>
<feColorMatrix type="matrix" values="0 0 0 0 0 0 0 0 0 0 0 0 0 0 0 0 0 0 0.25 0"/>
<feBlend mode="normal" in2="BackgroundImageFix" result="effect1_dropShadow_1318_1478"/>
<feBlend mode="normal" in="SourceGraphic" in2="effect1_dropShadow_1318_1478" result="shape"/>
</filter>
</defs>
</svg>
