<svg width="61" height="57" viewBox="0 0 61 57" fill="none" xmlns="http://www.w3.org/2000/svg">
<path d="M30 29V57H23.9431V35.25L18.1301 57H11.8699L6.17886 35.25H6.05691V57H0V29H9.51219L15.1626 50.1786H15.2033L20.6504 29H30Z" fill="#0A62D0"/>
<path d="M53 39.7691V11L60 11V57H53.1194L39.6194 16.4311L40 16.5V57H33V0H40.3597L53.5113 39.7691H53Z" fill="#0A62D0"/>
<path d="M60.5 4.1348C60.5 6.62008 58.7845 8.2363 56.2992 8.2363C53.814 8.2363 52 6.62008 52 4.1348C52 1.64951 53.814 0 56.2992 0C58.7845 0 60.5 1.64951 60.5 4.1348Z" fill="#0A62D0"/>
<path fill-rule="evenodd" clip-rule="evenodd" d="M19.0184 26C25.3514 24.4495 30 19.324 30 13.2402C30 5.92785 23.2843 0 15 0C6.71573 0 0 5.92785 0 13.2402C0 19.324 4.64863 24.4495 10.9816 26C9.7648 25.0307 9 23.6277 9 22.067C9 19.1421 11.6863 16.771 15 16.771C18.3137 16.771 21 19.1421 21 22.067C21 23.6277 20.2352 25.0307 19.0184 26Z" fill="#0A62D0"/>
</svg>
