<svg width="242" height="381" viewBox="0 0 242 381" fill="none" xmlns="http://www.w3.org/2000/svg">
<rect width="242" height="381" rx="8" fill="black"/>
<path d="M57 294C57 291.791 58.7909 290 61 290H70.3333V330H61C58.7909 330 57 328.209 57 326V294Z" fill="#FFECD6"/>
<path d="M83.6667 290H93C95.2092 290 97 291.791 97 294V326C97 328.209 95.2092 330 93 330H83.6667V290Z" fill="#FFECD6"/>
<mask id="path-4-inside-1_809_14396" fill="white">
<path d="M70.3333 290H83.6666V303.333H70.3333V290Z"/>
</mask>
<path d="M70.3333 290H83.6666V303.333H70.3333V290Z" fill="#FFECD6"/>
<path d="M70.3333 290V289.9H70.2333V290H70.3333ZM83.6666 290H83.7666V289.9H83.6666V290ZM70.3333 290.1H83.6666V289.9H70.3333V290.1ZM83.5666 290V303.333H83.7666V290H83.5666ZM70.4333 303.333V290H70.2333V303.333H70.4333Z" fill="black" mask="url(#path-4-inside-1_809_14396)"/>
<rect x="70.3833" y="303.383" width="13.2333" height="13.2333" fill="#FFECD6" stroke="black" stroke-width="0.1"/>
<mask id="path-7-inside-2_809_14396" fill="white">
<path d="M70.3333 316.667H83.6666V330H70.3333V316.667Z"/>
</mask>
<path d="M70.3333 316.667H83.6666V330H70.3333V316.667Z" fill="#FFECD6"/>
<path d="M83.6666 330V330.1H83.7666V330H83.6666ZM70.3333 330H70.2333V330.1H70.3333V330ZM83.5666 316.667V330H83.7666V316.667H83.5666ZM83.6666 329.9H70.3333V330.1H83.6666V329.9ZM70.4333 330V316.667H70.2333V330H70.4333Z" fill="black" mask="url(#path-7-inside-2_809_14396)"/>
<path d="M96.95 303.084L84.1055 310L96.95 316.916V303.084Z" fill="#FFECD6" stroke="black" stroke-width="0.1"/>
<path d="M57.05 303.084L69.8945 310L57.05 316.916V303.084Z" fill="#FFECD6" stroke="black" stroke-width="0.1"/>
</svg>
